<svg id="Capa_1" data-name="Capa 1" xmlns="http://www.w3.org/2000/svg" viewBox="0 0 158.97 41"><title>footer-logo</title><path d="M58.86,15.46H53.29V12.91H67.57v2.55H62V30H58.86Zm15.26,2.13a3.6,3.6,0,0,1,1.2.19l0,2.74a4.17,4.17,0,0,0-1.59-.31,3,3,0,0,0-2.35.89,3.38,3.38,0,0,0-.79,2.35V30h-3V21.31a27.12,27.12,0,0,0-.19-3.43h2.81L70.45,20a3.51,3.51,0,0,1,1.44-1.8A4,4,0,0,1,74.12,17.59Zm14.23.29V30H85.4V28.06a4,4,0,0,1-1.59,1.58,4.85,4.85,0,0,1-2.35.55,5,5,0,0,1-4.7-3A7.55,7.55,0,0,1,76.08,24a7.71,7.71,0,0,1,.68-3.31,5.28,5.28,0,0,1,1.92-2.26,4.9,4.9,0,0,1,2.78-.81,4.75,4.75,0,0,1,2.35.57A3.86,3.86,0,0,1,85.4,19.7V17.88Zm-6.07,10a2.75,2.75,0,0,0,2.3-1,4.56,4.56,0,0,0,.82-2.91A4.63,4.63,0,0,0,84.58,21a3.09,3.09,0,0,0-4.65.05A4.68,4.68,0,0,0,79.11,24a4.43,4.43,0,0,0,.82,2.88A2.89,2.89,0,0,0,82.28,27.84ZM97.35,14.71c-1.29,0-1.94.71-1.94,2.14v1h2.71v2.26H95.41V30h-3V20.14H90.1V17.88h2.31V16.7a4.66,4.66,0,0,1,1.08-3.31,4.1,4.1,0,0,1,3.14-1.17,5.52,5.52,0,0,1,1.9.28v2.38A5.07,5.07,0,0,0,97.35,14.71Zm14.55,3.17V30h-3V28.06a3.94,3.94,0,0,1-1.58,1.58,4.88,4.88,0,0,1-2.35.55,5,5,0,0,1-4.71-3A7.55,7.55,0,0,1,99.64,24a7.7,7.7,0,0,1,.67-3.31,5.42,5.42,0,0,1,1.92-2.26,5,5,0,0,1,2.79-.81,4.78,4.78,0,0,1,2.35.57A3.83,3.83,0,0,1,109,19.7V17.88Zm-6.07,10a2.78,2.78,0,0,0,2.31-1A4.62,4.62,0,0,0,109,23.9a4.69,4.69,0,0,0-.81-2.95,3.1,3.1,0,0,0-4.66.05,4.75,4.75,0,0,0-.82,2.95,4.49,4.49,0,0,0,.82,2.88A2.89,2.89,0,0,0,105.83,27.84Zm9.34-15.5h3V30h-3Zm18,5.54V29.62a5.6,5.6,0,0,1-1.56,4.29A6.45,6.45,0,0,1,127,35.38a10.18,10.18,0,0,1-5-1.18l.48-2.28a9.41,9.41,0,0,0,4.4,1.15c2.16,0,3.23-1.07,3.23-3.21v-2.4a4.24,4.24,0,0,1-1.6,1.6,4.75,4.75,0,0,1-2.38.6,5.39,5.39,0,0,1-2.83-.74,5.19,5.19,0,0,1-1.92-2.14,7.12,7.12,0,0,1-.67-3.16,7,7,0,0,1,.67-3.15,5,5,0,0,1,1.92-2.13,5.23,5.23,0,0,1,2.83-.77,4.84,4.84,0,0,1,2.38.57,3.77,3.77,0,0,1,1.6,1.56V17.88ZM127,27.31a2.92,2.92,0,0,0,2.33-1,4,4,0,0,0,.86-2.71,4.06,4.06,0,0,0-.84-2.72,2.93,2.93,0,0,0-2.35-1,3,3,0,0,0-2.35,1,4.06,4.06,0,0,0-.84,2.72,4.05,4.05,0,0,0,.84,2.71A3,3,0,0,0,127,27.31Zm21-9.43V30H145V28.06a3.94,3.94,0,0,1-1.58,1.58,4.88,4.88,0,0,1-2.35.55,5,5,0,0,1-4.71-3,7.55,7.55,0,0,1-.67-3.29,7.7,7.7,0,0,1,.67-3.31,5.42,5.42,0,0,1,1.92-2.26,5,5,0,0,1,2.79-.81,4.78,4.78,0,0,1,2.35.57A3.83,3.83,0,0,1,145,19.7V17.88Zm-6.07,10a2.78,2.78,0,0,0,2.31-1A4.62,4.62,0,0,0,145,23.9a4.69,4.69,0,0,0-.81-2.95,3.1,3.1,0,0,0-4.66.05,4.75,4.75,0,0,0-.82,2.95,4.49,4.49,0,0,0,.82,2.88A2.89,2.89,0,0,0,141.9,27.84Zm15.87-10.25a3.6,3.6,0,0,1,1.2.19l0,2.74a4.21,4.21,0,0,0-1.59-.31,3,3,0,0,0-2.35.89,3.38,3.38,0,0,0-.79,2.35V30h-3V21.31a27.12,27.12,0,0,0-.19-3.43h2.81L154.1,20a3.51,3.51,0,0,1,1.44-1.8A4,4,0,0,1,157.77,17.59Z" style="fill:#fff"/><path d="M20.5,0A20.5,20.5,0,1,0,41,20.5,20.5,20.5,0,0,0,20.5,0Zm8.28,15.24H22.72V31H19.34V15.24h-6V12.49H28.78Z" style="fill:#fff"/></svg>